<?xml version="1.0" encoding="utf-8"?>
<!-- Generator: Adobe Illustrator 16.0.0, SVG Export Plug-In . SVG Version: 6.00 Build 0)  -->
<!DOCTYPE svg PUBLIC "-//W3C//DTD SVG 1.0//EN" "http://www.w3.org/TR/2001/REC-SVG-20010904/DTD/svg10.dtd">
<svg version="1.0" id="Layer_1" xmlns="http://www.w3.org/2000/svg" xmlns:xlink="http://www.w3.org/1999/xlink" x="0px" y="0px"
	 width="32px" height="32px" viewBox="0 0 32 32" enable-background="new 0 0 32 32" xml:space="preserve">
<g>
	<g>
		<path d="M5.355,4.078l5.152,5.152c2.137-2.43,3.449-5.605,3.484-9.09C10.695,0.559,7.711,1.973,5.355,4.078z"/>
		<path d="M16,0c0,4.094-1.551,7.816-4.078,10.645l4.145,4.148L26.719,4.145C23.879,1.574,20.129,0,16,0z"/>
	</g>
	<g>
		<path d="M3.996,5.445c-2.062,2.344-3.441,5.293-3.855,8.547c3.441-0.035,6.578-1.312,9-3.402L3.996,5.445z"/>
		<path d="M0,16c0,4.129,1.578,7.879,4.145,10.715l10.559-10.559l-4.148-4.152C7.734,14.484,4.051,16,0,16z"/>
	</g>
	<g>
		<path d="M22.77,21.492l5.152,5.152c2.105-2.359,3.52-5.34,3.938-8.637C28.375,18.039,25.199,19.355,22.77,21.492z"/>
		<path d="M32,16c0-4.016-1.488-7.676-3.93-10.484L17.43,16.156l3.926,3.922C24.184,17.551,27.906,16,32,16z"/>
	</g>
	<g>
		<path d="M26.555,28.004l-5.145-5.145c-2.09,2.422-3.367,5.559-3.402,9C21.262,31.445,24.211,30.066,26.555,28.004z"/>
		<path d="M16.066,17.52L5.52,28.066C8.328,30.512,11.984,32,16,32c0-4.051,1.516-7.734,3.996-10.555L16.066,17.52z"/>
	</g>
</g>
<g>
</g>
<g>
</g>
<g>
</g>
<g>
</g>
<g>
</g>
<g>
</g>
<g>
</g>
<g>
</g>
<g>
</g>
<g>
</g>
<g>
</g>
<g>
</g>
<g>
</g>
<g>
</g>
<g>
</g>
</svg>
