<?xml version="1.0" encoding="utf-8"?>
<!-- Generator: Adobe Illustrator 16.0.0, SVG Export Plug-In . SVG Version: 6.00 Build 0)  -->
<!DOCTYPE svg PUBLIC "-//W3C//DTD SVG 1.0//EN" "http://www.w3.org/TR/2001/REC-SVG-20010904/DTD/svg10.dtd">
<svg version="1.0" id="Layer_1" xmlns="http://www.w3.org/2000/svg" xmlns:xlink="http://www.w3.org/1999/xlink" x="0px" y="0px"
	 width="32px" height="32px" viewBox="0 0 32 32" enable-background="new 0 0 32 32" xml:space="preserve">
<path d="M30,28h-3.441C29.887,25.07,32,20.785,32,16c0-8.836-7.164-16-16-16S0,7.164,0,16s7.164,16,16,16h14c1.105,0,2-0.895,2-2
	S31.105,28,30,28z M21.656,7.516c0.781-0.781,2.047-0.781,2.828,0s0.781,2.047,0,2.828s-2.047,0.781-2.828,0
	S20.875,8.297,21.656,7.516z M16,4c1.105,0,2,0.898,2,2c0,1.105-0.895,2-2,2s-2-0.895-2-2C14,4.898,14.895,4,16,4z M4,16
	c0-1.105,0.895-2,2-2s2,0.895,2,2s-0.895,2-2,2S4,17.105,4,16z M10.344,24.484c-0.781,0.781-2.047,0.781-2.828,0
	c-0.785-0.781-0.781-2.047,0-2.828s2.047-0.781,2.828,0S11.125,23.703,10.344,24.484z M10.344,10.344
	c-0.781,0.781-2.047,0.781-2.828,0s-0.781-2.047,0-2.828s2.047-0.781,2.828,0S11.125,9.562,10.344,10.344z M16,28
	c-1.109,0.004-2-0.895-2-2s0.895-2,2-2s2,0.895,2,2S17.105,28,16,28z M16,20c-2.211,0-4-1.789-4-4c0-2.207,1.789-4,4-4
	c2.207,0,4,1.793,4,4C20,18.211,18.207,20,16,20z M24.484,24.484c-0.781,0.785-2.047,0.781-2.828,0s-0.781-2.047,0-2.828
	s2.047-0.781,2.828,0S25.266,23.703,24.484,24.484z M24,16c0-1.105,0.895-2,2-2s2,0.895,2,2s-0.895,2-2,2S24,17.105,24,16z"/>
<g>
</g>
<g>
</g>
<g>
</g>
<g>
</g>
<g>
</g>
<g>
</g>
<g>
</g>
<g>
</g>
<g>
</g>
<g>
</g>
<g>
</g>
<g>
</g>
<g>
</g>
<g>
</g>
<g>
</g>
</svg>
