<?xml version="1.0" encoding="utf-8"?>
<!-- Generator: Adobe Illustrator 16.0.0, SVG Export Plug-In . SVG Version: 6.00 Build 0)  -->
<!DOCTYPE svg PUBLIC "-//W3C//DTD SVG 1.0//EN" "http://www.w3.org/TR/2001/REC-SVG-20010904/DTD/svg10.dtd">
<svg version="1.0" id="Layer_1" xmlns="http://www.w3.org/2000/svg" xmlns:xlink="http://www.w3.org/1999/xlink" x="0px" y="0px"
	 width="32px" height="32px" viewBox="0 0 32 32" enable-background="new 0 0 32 32" xml:space="preserve">
<g>
	<path d="M20.013,10.971l4.007,4.006l1.983-2.269l-4.448-9.876c-0.282-0.634-0.92-0.958-1.558-0.88
		c-0.638-0.078-1.279,0.247-1.565,0.88l-4.429,9.849l2.003,2.297L20.013,10.971z"/>
	<path d="M31.857,25.723l-4.837-10.741l-3.001,3.002l-4.007-4.007l-4.007,4.007l-3.029-3.029L9.62,22.408l2.336-12.373l-0.677-1.393
		c-0.235-0.489-0.771-0.739-1.299-0.681C9.448,7.903,8.916,8.154,8.677,8.643L0.096,26.251c-0.297,0.606,0.361,1.33,0.995,1.608
		C1.263,27.938,2,27.969,2,27.973V28h7.996H30v-0.035c0-0.004,0.669-0.051,0.864-0.145C31.627,27.452,32.217,26.513,31.857,25.723z"
		/>
</g>
<g>
</g>
<g>
</g>
<g>
</g>
<g>
</g>
<g>
</g>
<g>
</g>
<g>
</g>
<g>
</g>
<g>
</g>
<g>
</g>
<g>
</g>
<g>
</g>
<g>
</g>
<g>
</g>
<g>
</g>
</svg>
